<svg width="85" height="79" viewBox="0 0 85 79" fill="none" xmlns="http://www.w3.org/2000/svg">
<path d="M10 38V61C10 69.2843 16.7157 76 25 76H60C68.2843 76 75 69.2843 75 61V38" stroke="#051BE8" stroke-width="5"/>
<path d="M49 75.5H55C57.4853 75.5 59.5 73.4853 59.5 71V52C59.5 49.5147 57.4853 47.5 55 47.5H49C46.5147 47.5 44.5 49.5147 44.5 52V71C44.5 73.4853 46.5147 75.5 49 75.5Z" fill="#051BE8" stroke="#051BE8" stroke-width="5"/>
<path d="M19 2.5H66C75.1127 2.5 82.5 9.8873 82.5 19V25.6074C82.4997 27.3837 80.3447 28.2138 79.1484 26.9785L79.0361 26.8525C76.6619 23.9779 72.463 23.5001 69.5107 25.708L69.2285 25.9307L64.0469 30.2334C60.869 32.8718 56.2716 32.9028 53.0576 30.3086L51.9512 29.416C46.6051 25.1007 39.0577 24.9164 33.5205 28.8916L32.9912 29.2891L31.293 30.623C28.3945 32.8994 24.3063 32.796 21.5303 30.4219L21.2656 30.1846L17.4521 26.6104C14.5158 23.8579 9.95379 23.9261 7.10059 26.7002L6.83008 26.9766C5.28433 28.6402 2.5 27.5463 2.5 25.2754V19C2.5 9.8873 9.8873 2.5 19 2.5Z" fill="#051BE8" stroke="#051BE8" stroke-width="5"/>
</svg>
