<svg width="5400" height="900" viewBox="0 0 5400 900" fill="none" xmlns="http://www.w3.org/2000/svg">
<rect x="900" y="450" width="150" height="150" transform="rotate(180 900 450)" fill="#0900FF"/>
<rect x="900" y="150" width="150" height="150" transform="rotate(180 900 150)" fill="#0900FF"/>
<rect x="1350" y="300" width="450" height="150" transform="rotate(180 1350 300)" fill="#0900FF"/>
<rect x="1050" y="450" width="450" height="150" transform="rotate(-90 1050 450)" fill="#0900FF"/>
<rect x="450" y="300" width="450" height="150" transform="rotate(180 450 300)" fill="#0900FF"/>
<rect x="150" y="450" width="450" height="150" transform="rotate(-90 150 450)" fill="#0900FF"/>
<rect x="600" y="450" width="150" height="150" transform="rotate(180 600 450)" fill="#0900FF"/>
<rect x="600" y="150" width="150" height="150" transform="rotate(180 600 150)" fill="#0900FF"/>
<rect x="1350" y="900" width="150" height="150" transform="rotate(180 1350 900)" fill="#0900FF"/>
<rect x="450" y="900" width="150" height="150" transform="rotate(180 450 900)" fill="#0900FF"/>
<rect x="1350" y="600" width="150" height="150" transform="rotate(180 1350 600)" fill="#0900FF"/>
<rect x="450" y="600" width="150" height="150" transform="rotate(180 450 600)" fill="#0900FF"/>
<rect x="900" y="750" width="450" height="150" transform="rotate(180 900 750)" fill="#0900FF"/>
<rect x="600" y="900" width="450" height="150" transform="rotate(-90 600 900)" fill="#0900FF"/>
<rect x="1050" y="900" width="150" height="150" transform="rotate(180 1050 900)" fill="#0900FF"/>
<rect x="150" y="900" width="150" height="150" transform="rotate(180 150 900)" fill="#0900FF"/>
<rect x="1050" y="600" width="150" height="150" transform="rotate(180 1050 600)" fill="#0900FF"/>
<rect x="150" y="600" width="150" height="150" transform="rotate(180 150 600)" fill="#0900FF"/>
<rect x="2250" y="900" width="150" height="150" transform="rotate(180 2250 900)" fill="#0900FF"/>
<rect x="2250" y="600" width="150" height="150" transform="rotate(180 2250 600)" fill="#0900FF"/>
<rect x="2700" y="750" width="450" height="150" transform="rotate(180 2700 750)" fill="#0900FF"/>
<rect x="2400" y="900" width="450" height="150" transform="rotate(-90 2400 900)" fill="#0900FF"/>
<rect x="1800" y="750" width="450" height="150" transform="rotate(180 1800 750)" fill="#0900FF"/>
<rect x="1500" y="900" width="450" height="150" transform="rotate(-90 1500 900)" fill="#0900FF"/>
<rect x="1950" y="900" width="150" height="150" transform="rotate(180 1950 900)" fill="#0900FF"/>
<rect x="1950" y="600" width="150" height="150" transform="rotate(180 1950 600)" fill="#0900FF"/>
<rect x="2700" y="450" width="150" height="150" transform="rotate(180 2700 450)" fill="#0900FF"/>
<rect x="1800" y="450" width="150" height="150" transform="rotate(180 1800 450)" fill="#0900FF"/>
<rect x="2700" y="150" width="150" height="150" transform="rotate(180 2700 150)" fill="#0900FF"/>
<rect x="1800" y="150" width="150" height="150" transform="rotate(180 1800 150)" fill="#0900FF"/>
<rect x="2250" y="300" width="450" height="150" transform="rotate(180 2250 300)" fill="#0900FF"/>
<rect x="1950" y="450" width="450" height="150" transform="rotate(-90 1950 450)" fill="#0900FF"/>
<rect x="2400" y="450" width="150" height="150" transform="rotate(180 2400 450)" fill="#0900FF"/>
<rect x="1500" y="450" width="150" height="150" transform="rotate(180 1500 450)" fill="#0900FF"/>
<rect x="2400" y="150" width="150" height="150" transform="rotate(180 2400 150)" fill="#0900FF"/>
<rect x="1500" y="150" width="150" height="150" transform="rotate(180 1500 150)" fill="#0900FF"/>
<rect x="3600" y="450" width="150" height="150" transform="rotate(180 3600 450)" fill="#0900FF"/>
<rect x="3600" y="150" width="150" height="150" transform="rotate(180 3600 150)" fill="#0900FF"/>
<rect x="4050" y="300" width="450" height="150" transform="rotate(180 4050 300)" fill="#0900FF"/>
<rect x="3750" y="450" width="450" height="150" transform="rotate(-90 3750 450)" fill="#0900FF"/>
<rect x="3150" y="300" width="450" height="150" transform="rotate(180 3150 300)" fill="#0900FF"/>
<rect x="2850" y="450" width="450" height="150" transform="rotate(-90 2850 450)" fill="#0900FF"/>
<rect x="3300" y="450" width="150" height="150" transform="rotate(180 3300 450)" fill="#0900FF"/>
<rect x="3300" y="150" width="150" height="150" transform="rotate(180 3300 150)" fill="#0900FF"/>
<rect x="4050" y="900" width="150" height="150" transform="rotate(180 4050 900)" fill="#0900FF"/>
<rect x="3150" y="900" width="150" height="150" transform="rotate(180 3150 900)" fill="#0900FF"/>
<rect x="4050" y="600" width="150" height="150" transform="rotate(180 4050 600)" fill="#0900FF"/>
<rect x="3150" y="600" width="150" height="150" transform="rotate(180 3150 600)" fill="#0900FF"/>
<rect x="3600" y="750" width="450" height="150" transform="rotate(180 3600 750)" fill="#0900FF"/>
<rect x="3300" y="900" width="450" height="150" transform="rotate(-90 3300 900)" fill="#0900FF"/>
<rect x="3750" y="900" width="150" height="150" transform="rotate(180 3750 900)" fill="#0900FF"/>
<rect x="2850" y="900" width="150" height="150" transform="rotate(180 2850 900)" fill="#0900FF"/>
<rect x="3750" y="600" width="150" height="150" transform="rotate(180 3750 600)" fill="#0900FF"/>
<rect x="2850" y="600" width="150" height="150" transform="rotate(180 2850 600)" fill="#0900FF"/>
<rect x="4950" y="900" width="150" height="150" transform="rotate(180 4950 900)" fill="#0900FF"/>
<rect x="4950" y="600" width="150" height="150" transform="rotate(180 4950 600)" fill="#0900FF"/>
<rect x="5400" y="750" width="450" height="150" transform="rotate(180 5400 750)" fill="#0900FF"/>
<rect x="5100" y="900" width="450" height="150" transform="rotate(-90 5100 900)" fill="#0900FF"/>
<rect x="4500" y="750" width="450" height="150" transform="rotate(180 4500 750)" fill="#0900FF"/>
<rect x="4200" y="900" width="450" height="150" transform="rotate(-90 4200 900)" fill="#0900FF"/>
<rect x="4650" y="900" width="150" height="150" transform="rotate(180 4650 900)" fill="#0900FF"/>
<rect x="4650" y="600" width="150" height="150" transform="rotate(180 4650 600)" fill="#0900FF"/>
<rect x="5400" y="450" width="150" height="150" transform="rotate(180 5400 450)" fill="#0900FF"/>
<rect x="4500" y="450" width="150" height="150" transform="rotate(180 4500 450)" fill="#0900FF"/>
<rect x="5400" y="150" width="150" height="150" transform="rotate(180 5400 150)" fill="#0900FF"/>
<rect x="4500" y="150" width="150" height="150" transform="rotate(180 4500 150)" fill="#0900FF"/>
<rect x="4950" y="300" width="450" height="150" transform="rotate(180 4950 300)" fill="#0900FF"/>
<rect x="4650" y="450" width="450" height="150" transform="rotate(-90 4650 450)" fill="#0900FF"/>
<rect x="5100" y="450" width="150" height="150" transform="rotate(180 5100 450)" fill="#0900FF"/>
<rect x="4200" y="450" width="150" height="150" transform="rotate(180 4200 450)" fill="#0900FF"/>
<rect x="5100" y="150" width="150" height="150" transform="rotate(180 5100 150)" fill="#0900FF"/>
<rect x="4200" y="150" width="150" height="150" transform="rotate(180 4200 150)" fill="#0900FF"/>
</svg>
