<svg width="5400" height="3600" viewBox="0 0 5400 3600" fill="none" xmlns="http://www.w3.org/2000/svg">
<rect x="4950" y="3600" width="150" height="150" transform="rotate(180 4950 3600)" fill="#0900FF"/>
<rect x="4950" y="3300" width="150" height="150" transform="rotate(180 4950 3300)" fill="#0900FF"/>
<rect x="5400" y="3450" width="450" height="150" transform="rotate(180 5400 3450)" fill="#0900FF"/>
<rect x="5100" y="3600" width="450" height="150" transform="rotate(-90 5100 3600)" fill="#0900FF"/>
<rect x="4500" y="3450" width="450" height="150" transform="rotate(180 4500 3450)" fill="#0900FF"/>
<rect x="4200" y="3600" width="450" height="150" transform="rotate(-90 4200 3600)" fill="#0900FF"/>
<rect x="4650" y="3600" width="150" height="150" transform="rotate(180 4650 3600)" fill="#0900FF"/>
<rect x="4650" y="3300" width="150" height="150" transform="rotate(180 4650 3300)" fill="#0900FF"/>
<rect x="4500" y="3150" width="150" height="150" transform="rotate(180 4500 3150)" fill="#0900FF"/>
<rect x="5400" y="3150" width="150" height="150" transform="rotate(180 5400 3150)" fill="#0900FF"/>
<rect x="4500" y="2850" width="150" height="150" transform="rotate(180 4500 2850)" fill="#0900FF"/>
<rect x="5400" y="2850" width="150" height="150" transform="rotate(180 5400 2850)" fill="#0900FF"/>
<rect x="4950" y="3000" width="450" height="150" transform="rotate(180 4950 3000)" fill="#0900FF"/>
<rect x="4650" y="3150" width="450" height="150" transform="rotate(-90 4650 3150)" fill="#0900FF"/>
<rect x="4200" y="3150" width="150" height="150" transform="rotate(180 4200 3150)" fill="#0900FF"/>
<rect x="5100" y="3150" width="150" height="150" transform="rotate(180 5100 3150)" fill="#0900FF"/>
<rect x="4200" y="2850" width="150" height="150" transform="rotate(180 4200 2850)" fill="#0900FF"/>
<rect x="5100" y="2850" width="150" height="150" transform="rotate(180 5100 2850)" fill="#0900FF"/>
<rect x="4950" y="2700" width="150" height="150" transform="rotate(180 4950 2700)" fill="#0900FF"/>
<rect x="4950" y="2400" width="150" height="150" transform="rotate(180 4950 2400)" fill="#0900FF"/>
<rect x="5400" y="2550" width="450" height="150" transform="rotate(180 5400 2550)" fill="#0900FF"/>
<rect x="5100" y="2700" width="450" height="150" transform="rotate(-90 5100 2700)" fill="#0900FF"/>
<rect x="4650" y="2700" width="150" height="150" transform="rotate(180 4650 2700)" fill="#0900FF"/>
<rect x="4650" y="2400" width="150" height="150" transform="rotate(180 4650 2400)" fill="#0900FF"/>
<rect x="4500" y="2250" width="150" height="150" transform="rotate(180 4500 2250)" fill="#0900FF"/>
<rect x="5400" y="2250" width="150" height="150" transform="rotate(180 5400 2250)" fill="#0900FF"/>
<rect x="4500" y="1950" width="150" height="150" transform="rotate(180 4500 1950)" fill="#0900FF"/>
<rect x="5400" y="1950" width="150" height="150" transform="rotate(180 5400 1950)" fill="#0900FF"/>
<rect x="4950" y="2100" width="450" height="150" transform="rotate(180 4950 2100)" fill="#0900FF"/>
<rect x="4650" y="2250" width="450" height="150" transform="rotate(-90 4650 2250)" fill="#0900FF"/>
<rect x="4200" y="2250" width="150" height="150" transform="rotate(180 4200 2250)" fill="#0900FF"/>
<rect x="5100" y="2250" width="150" height="150" transform="rotate(180 5100 2250)" fill="#0900FF"/>
<rect x="4200" y="1950" width="150" height="150" transform="rotate(180 4200 1950)" fill="#0900FF"/>
<rect x="5100" y="1950" width="150" height="150" transform="rotate(180 5100 1950)" fill="#0900FF"/>
<rect x="3600" y="3150" width="150" height="150" transform="rotate(180 3600 3150)" fill="#0900FF"/>
<rect x="3600" y="2850" width="150" height="150" transform="rotate(180 3600 2850)" fill="#0900FF"/>
<rect x="4050" y="3000" width="450" height="150" transform="rotate(180 4050 3000)" fill="#0900FF"/>
<rect x="3750" y="3150" width="450" height="150" transform="rotate(-90 3750 3150)" fill="#0900FF"/>
<rect x="3150" y="3000" width="450" height="150" transform="rotate(180 3150 3000)" fill="#0900FF"/>
<rect x="2850" y="3150" width="450" height="150" transform="rotate(-90 2850 3150)" fill="#0900FF"/>
<rect x="3300" y="3150" width="150" height="150" transform="rotate(180 3300 3150)" fill="#0900FF"/>
<rect x="3300" y="2850" width="150" height="150" transform="rotate(180 3300 2850)" fill="#0900FF"/>
<rect x="3600" y="2250" width="150" height="150" transform="rotate(180 3600 2250)" fill="#0900FF"/>
<rect x="3150" y="2700" width="150" height="150" transform="rotate(180 3150 2700)" fill="#0900FF"/>
<rect x="3600" y="1950" width="150" height="150" transform="rotate(180 3600 1950)" fill="#0900FF"/>
<rect x="3150" y="2400" width="150" height="150" transform="rotate(180 3150 2400)" fill="#0900FF"/>
<rect x="4050" y="2100" width="450" height="150" transform="rotate(180 4050 2100)" fill="#0900FF"/>
<rect x="3750" y="2250" width="450" height="150" transform="rotate(-90 3750 2250)" fill="#0900FF"/>
<rect x="3150" y="2100" width="450" height="150" transform="rotate(180 3150 2100)" fill="#0900FF"/>
<rect x="2850" y="2250" width="450" height="150" transform="rotate(-90 2850 2250)" fill="#0900FF"/>
<rect x="3300" y="2250" width="150" height="150" transform="rotate(180 3300 2250)" fill="#0900FF"/>
<rect x="2850" y="2700" width="150" height="150" transform="rotate(180 2850 2700)" fill="#0900FF"/>
<rect x="3300" y="1950" width="150" height="150" transform="rotate(180 3300 1950)" fill="#0900FF"/>
<rect x="2850" y="2400" width="150" height="150" transform="rotate(180 2850 2400)" fill="#0900FF"/>
<rect x="3150" y="3600" width="150" height="150" transform="rotate(180 3150 3600)" fill="#0900FF"/>
<rect x="4050" y="3600" width="150" height="150" transform="rotate(180 4050 3600)" fill="#0900FF"/>
<rect x="3150" y="3300" width="150" height="150" transform="rotate(180 3150 3300)" fill="#0900FF"/>
<rect x="4050" y="3300" width="150" height="150" transform="rotate(180 4050 3300)" fill="#0900FF"/>
<rect x="3600" y="3450" width="450" height="150" transform="rotate(180 3600 3450)" fill="#0900FF"/>
<rect x="3300" y="3600" width="450" height="150" transform="rotate(-90 3300 3600)" fill="#0900FF"/>
<rect x="2850" y="3600" width="150" height="150" transform="rotate(180 2850 3600)" fill="#0900FF"/>
<rect x="3750" y="3600" width="150" height="150" transform="rotate(180 3750 3600)" fill="#0900FF"/>
<rect x="2850" y="3300" width="150" height="150" transform="rotate(180 2850 3300)" fill="#0900FF"/>
<rect x="3750" y="3300" width="150" height="150" transform="rotate(180 3750 3300)" fill="#0900FF"/>
<rect x="4950" y="1800" width="150" height="150" transform="rotate(180 4950 1800)" fill="#0900FF"/>
<rect x="4950" y="1500" width="150" height="150" transform="rotate(180 4950 1500)" fill="#0900FF"/>
<rect x="5400" y="1650" width="450" height="150" transform="rotate(180 5400 1650)" fill="#0900FF"/>
<rect x="5100" y="1800" width="450" height="150" transform="rotate(-90 5100 1800)" fill="#0900FF"/>
<rect x="4500" y="1650" width="450" height="150" transform="rotate(180 4500 1650)" fill="#0900FF"/>
<rect x="4200" y="1800" width="450" height="150" transform="rotate(-90 4200 1800)" fill="#0900FF"/>
<rect x="4650" y="1800" width="150" height="150" transform="rotate(180 4650 1800)" fill="#0900FF"/>
<rect x="4650" y="1500" width="150" height="150" transform="rotate(180 4650 1500)" fill="#0900FF"/>
<rect x="4500" y="1350" width="150" height="150" transform="rotate(180 4500 1350)" fill="#0900FF"/>
<rect x="5400" y="1350" width="150" height="150" transform="rotate(180 5400 1350)" fill="#0900FF"/>
<rect x="4500" y="1050" width="150" height="150" transform="rotate(180 4500 1050)" fill="#0900FF"/>
<rect x="5400" y="1050" width="150" height="150" transform="rotate(180 5400 1050)" fill="#0900FF"/>
<rect x="4950" y="1200" width="450" height="150" transform="rotate(180 4950 1200)" fill="#0900FF"/>
<rect x="4650" y="1350" width="450" height="150" transform="rotate(-90 4650 1350)" fill="#0900FF"/>
<rect x="4200" y="1350" width="150" height="150" transform="rotate(180 4200 1350)" fill="#0900FF"/>
<rect x="5100" y="1350" width="150" height="150" transform="rotate(180 5100 1350)" fill="#0900FF"/>
<rect x="4200" y="1050" width="150" height="150" transform="rotate(180 4200 1050)" fill="#0900FF"/>
<rect x="5100" y="1050" width="150" height="150" transform="rotate(180 5100 1050)" fill="#0900FF"/>
<rect x="4950" y="900" width="150" height="150" transform="rotate(180 4950 900)" fill="#0900FF"/>
<rect x="4950" y="600" width="150" height="150" transform="rotate(180 4950 600)" fill="#0900FF"/>
<rect x="5400" y="750" width="450" height="150" transform="rotate(180 5400 750)" fill="#0900FF"/>
<rect x="5100" y="900" width="450" height="150" transform="rotate(-90 5100 900)" fill="#0900FF"/>
<rect x="4500" y="750" width="450" height="150" transform="rotate(180 4500 750)" fill="#0900FF"/>
<rect x="4200" y="900" width="450" height="150" transform="rotate(-90 4200 900)" fill="#0900FF"/>
<rect x="4650" y="900" width="150" height="150" transform="rotate(180 4650 900)" fill="#0900FF"/>
<rect x="4650" y="600" width="150" height="150" transform="rotate(180 4650 600)" fill="#0900FF"/>
<rect x="4500" y="450" width="150" height="150" transform="rotate(180 4500 450)" fill="#0900FF"/>
<rect x="5400" y="450" width="150" height="150" transform="rotate(180 5400 450)" fill="#0900FF"/>
<rect x="4500" y="150" width="150" height="150" transform="rotate(180 4500 150)" fill="#0900FF"/>
<rect x="5400" y="150" width="150" height="150" transform="rotate(180 5400 150)" fill="#0900FF"/>
<rect x="4950" y="300" width="450" height="150" transform="rotate(180 4950 300)" fill="#0900FF"/>
<rect x="4650" y="450" width="450" height="150" transform="rotate(-90 4650 450)" fill="#0900FF"/>
<rect x="4200" y="450" width="150" height="150" transform="rotate(180 4200 450)" fill="#0900FF"/>
<rect x="5100" y="450" width="150" height="150" transform="rotate(180 5100 450)" fill="#0900FF"/>
<rect x="4200" y="150" width="150" height="150" transform="rotate(180 4200 150)" fill="#0900FF"/>
<rect x="5100" y="150" width="150" height="150" transform="rotate(180 5100 150)" fill="#0900FF"/>
<rect x="3600" y="1350" width="150" height="150" transform="rotate(180 3600 1350)" fill="#0900FF"/>
<rect x="3600" y="1050" width="150" height="150" transform="rotate(180 3600 1050)" fill="#0900FF"/>
<rect x="4050" y="1200" width="450" height="150" transform="rotate(180 4050 1200)" fill="#0900FF"/>
<rect x="3750" y="1350" width="450" height="150" transform="rotate(-90 3750 1350)" fill="#0900FF"/>
<rect x="3150" y="1200" width="450" height="150" transform="rotate(180 3150 1200)" fill="#0900FF"/>
<rect x="2850" y="1350" width="450" height="150" transform="rotate(-90 2850 1350)" fill="#0900FF"/>
<rect x="3300" y="1350" width="150" height="150" transform="rotate(180 3300 1350)" fill="#0900FF"/>
<rect x="3300" y="1050" width="150" height="150" transform="rotate(180 3300 1050)" fill="#0900FF"/>
<rect x="3150" y="900" width="150" height="150" transform="rotate(180 3150 900)" fill="#0900FF"/>
<rect x="4050" y="900" width="150" height="150" transform="rotate(180 4050 900)" fill="#0900FF"/>
<rect x="3150" y="600" width="150" height="150" transform="rotate(180 3150 600)" fill="#0900FF"/>
<rect x="4050" y="600" width="150" height="150" transform="rotate(180 4050 600)" fill="#0900FF"/>
<rect x="3600" y="750" width="450" height="150" transform="rotate(180 3600 750)" fill="#0900FF"/>
<rect x="3300" y="900" width="450" height="150" transform="rotate(-90 3300 900)" fill="#0900FF"/>
<rect x="2850" y="900" width="150" height="150" transform="rotate(180 2850 900)" fill="#0900FF"/>
<rect x="3750" y="900" width="150" height="150" transform="rotate(180 3750 900)" fill="#0900FF"/>
<rect x="2850" y="600" width="150" height="150" transform="rotate(180 2850 600)" fill="#0900FF"/>
<rect x="3750" y="600" width="150" height="150" transform="rotate(180 3750 600)" fill="#0900FF"/>
<rect x="3600" y="450" width="150" height="150" transform="rotate(180 3600 450)" fill="#0900FF"/>
<rect x="3600" y="150" width="150" height="150" transform="rotate(180 3600 150)" fill="#0900FF"/>
<rect x="4050" y="300" width="450" height="150" transform="rotate(180 4050 300)" fill="#0900FF"/>
<rect x="3750" y="450" width="450" height="150" transform="rotate(-90 3750 450)" fill="#0900FF"/>
<rect x="3150" y="300" width="450" height="150" transform="rotate(180 3150 300)" fill="#0900FF"/>
<rect x="2850" y="450" width="450" height="150" transform="rotate(-90 2850 450)" fill="#0900FF"/>
<rect x="3300" y="450" width="150" height="150" transform="rotate(180 3300 450)" fill="#0900FF"/>
<rect x="3300" y="150" width="150" height="150" transform="rotate(180 3300 150)" fill="#0900FF"/>
<rect x="3150" y="1800" width="150" height="150" transform="rotate(180 3150 1800)" fill="#0900FF"/>
<rect x="4050" y="1800" width="150" height="150" transform="rotate(180 4050 1800)" fill="#0900FF"/>
<rect x="3150" y="1500" width="150" height="150" transform="rotate(180 3150 1500)" fill="#0900FF"/>
<rect x="4050" y="1500" width="150" height="150" transform="rotate(180 4050 1500)" fill="#0900FF"/>
<rect x="3600" y="1650" width="450" height="150" transform="rotate(180 3600 1650)" fill="#0900FF"/>
<rect x="3300" y="1800" width="450" height="150" transform="rotate(-90 3300 1800)" fill="#0900FF"/>
<rect x="2850" y="1800" width="150" height="150" transform="rotate(180 2850 1800)" fill="#0900FF"/>
<rect x="3750" y="1800" width="150" height="150" transform="rotate(180 3750 1800)" fill="#0900FF"/>
<rect x="2850" y="1500" width="150" height="150" transform="rotate(180 2850 1500)" fill="#0900FF"/>
<rect x="3750" y="1500" width="150" height="150" transform="rotate(180 3750 1500)" fill="#0900FF"/>
<rect x="2250" y="3600" width="150" height="150" transform="rotate(180 2250 3600)" fill="#0900FF"/>
<rect x="2250" y="3300" width="150" height="150" transform="rotate(180 2250 3300)" fill="#0900FF"/>
<rect x="2700" y="3450" width="450" height="150" transform="rotate(180 2700 3450)" fill="#0900FF"/>
<rect x="2400" y="3600" width="450" height="150" transform="rotate(-90 2400 3600)" fill="#0900FF"/>
<rect x="1800" y="3450" width="450" height="150" transform="rotate(180 1800 3450)" fill="#0900FF"/>
<rect x="1500" y="3600" width="450" height="150" transform="rotate(-90 1500 3600)" fill="#0900FF"/>
<rect x="1950" y="3600" width="150" height="150" transform="rotate(180 1950 3600)" fill="#0900FF"/>
<rect x="1950" y="3300" width="150" height="150" transform="rotate(180 1950 3300)" fill="#0900FF"/>
<rect x="1800" y="3150" width="150" height="150" transform="rotate(180 1800 3150)" fill="#0900FF"/>
<rect x="2700" y="3150" width="150" height="150" transform="rotate(180 2700 3150)" fill="#0900FF"/>
<rect x="1800" y="2850" width="150" height="150" transform="rotate(180 1800 2850)" fill="#0900FF"/>
<rect x="2700" y="2850" width="150" height="150" transform="rotate(180 2700 2850)" fill="#0900FF"/>
<rect x="2250" y="3000" width="450" height="150" transform="rotate(180 2250 3000)" fill="#0900FF"/>
<rect x="1950" y="3150" width="450" height="150" transform="rotate(-90 1950 3150)" fill="#0900FF"/>
<rect x="1500" y="3150" width="150" height="150" transform="rotate(180 1500 3150)" fill="#0900FF"/>
<rect x="2400" y="3150" width="150" height="150" transform="rotate(180 2400 3150)" fill="#0900FF"/>
<rect x="1500" y="2850" width="150" height="150" transform="rotate(180 1500 2850)" fill="#0900FF"/>
<rect x="2400" y="2850" width="150" height="150" transform="rotate(180 2400 2850)" fill="#0900FF"/>
<rect x="2250" y="2700" width="150" height="150" transform="rotate(180 2250 2700)" fill="#0900FF"/>
<rect x="2250" y="2400" width="150" height="150" transform="rotate(180 2250 2400)" fill="#0900FF"/>
<rect x="2700" y="2550" width="450" height="150" transform="rotate(180 2700 2550)" fill="#0900FF"/>
<rect x="2400" y="2700" width="450" height="150" transform="rotate(-90 2400 2700)" fill="#0900FF"/>
<rect x="1800" y="2550" width="450" height="150" transform="rotate(180 1800 2550)" fill="#0900FF"/>
<rect x="1500" y="2700" width="450" height="150" transform="rotate(-90 1500 2700)" fill="#0900FF"/>
<rect x="1950" y="2700" width="150" height="150" transform="rotate(180 1950 2700)" fill="#0900FF"/>
<rect x="1950" y="2400" width="150" height="150" transform="rotate(180 1950 2400)" fill="#0900FF"/>
<rect x="1800" y="2250" width="150" height="150" transform="rotate(180 1800 2250)" fill="#0900FF"/>
<rect x="2700" y="2250" width="150" height="150" transform="rotate(180 2700 2250)" fill="#0900FF"/>
<rect x="1800" y="1950" width="150" height="150" transform="rotate(180 1800 1950)" fill="#0900FF"/>
<rect x="2700" y="1950" width="150" height="150" transform="rotate(180 2700 1950)" fill="#0900FF"/>
<rect x="2250" y="2100" width="450" height="150" transform="rotate(180 2250 2100)" fill="#0900FF"/>
<rect x="1950" y="2250" width="450" height="150" transform="rotate(-90 1950 2250)" fill="#0900FF"/>
<rect x="1500" y="2250" width="150" height="150" transform="rotate(180 1500 2250)" fill="#0900FF"/>
<rect x="2400" y="2250" width="150" height="150" transform="rotate(180 2400 2250)" fill="#0900FF"/>
<rect x="1500" y="1950" width="150" height="150" transform="rotate(180 1500 1950)" fill="#0900FF"/>
<rect x="2400" y="1950" width="150" height="150" transform="rotate(180 2400 1950)" fill="#0900FF"/>
<rect x="900" y="3150" width="150" height="150" transform="rotate(180 900 3150)" fill="#0900FF"/>
<rect x="900" y="2850" width="150" height="150" transform="rotate(180 900 2850)" fill="#0900FF"/>
<rect x="1350" y="3000" width="450" height="150" transform="rotate(180 1350 3000)" fill="#0900FF"/>
<rect x="1050" y="3150" width="450" height="150" transform="rotate(-90 1050 3150)" fill="#0900FF"/>
<rect x="450" y="3000" width="450" height="150" transform="rotate(180 450 3000)" fill="#0900FF"/>
<rect x="150" y="3150" width="450" height="150" transform="rotate(-90 150 3150)" fill="#0900FF"/>
<rect x="600" y="3150" width="150" height="150" transform="rotate(180 600 3150)" fill="#0900FF"/>
<rect x="600" y="2850" width="150" height="150" transform="rotate(180 600 2850)" fill="#0900FF"/>
<rect x="450" y="2700" width="150" height="150" transform="rotate(180 450 2700)" fill="#0900FF"/>
<rect x="1350" y="2700" width="150" height="150" transform="rotate(180 1350 2700)" fill="#0900FF"/>
<rect x="450" y="2400" width="150" height="150" transform="rotate(180 450 2400)" fill="#0900FF"/>
<rect x="1350" y="2400" width="150" height="150" transform="rotate(180 1350 2400)" fill="#0900FF"/>
<rect x="900" y="2550" width="450" height="150" transform="rotate(180 900 2550)" fill="#0900FF"/>
<rect x="600" y="2700" width="450" height="150" transform="rotate(-90 600 2700)" fill="#0900FF"/>
<rect x="150" y="2700" width="150" height="150" transform="rotate(180 150 2700)" fill="#0900FF"/>
<rect x="1050" y="2700" width="150" height="150" transform="rotate(180 1050 2700)" fill="#0900FF"/>
<rect x="150" y="2400" width="150" height="150" transform="rotate(180 150 2400)" fill="#0900FF"/>
<rect x="1050" y="2400" width="150" height="150" transform="rotate(180 1050 2400)" fill="#0900FF"/>
<rect x="900" y="2250" width="150" height="150" transform="rotate(180 900 2250)" fill="#0900FF"/>
<rect x="900" y="1950" width="150" height="150" transform="rotate(180 900 1950)" fill="#0900FF"/>
<rect x="1350" y="2100" width="450" height="150" transform="rotate(180 1350 2100)" fill="#0900FF"/>
<rect x="1050" y="2250" width="450" height="150" transform="rotate(-90 1050 2250)" fill="#0900FF"/>
<rect x="450" y="2100" width="450" height="150" transform="rotate(180 450 2100)" fill="#0900FF"/>
<rect x="150" y="2250" width="450" height="150" transform="rotate(-90 150 2250)" fill="#0900FF"/>
<rect x="600" y="2250" width="150" height="150" transform="rotate(180 600 2250)" fill="#0900FF"/>
<rect x="600" y="1950" width="150" height="150" transform="rotate(180 600 1950)" fill="#0900FF"/>
<rect x="450" y="3600" width="150" height="150" transform="rotate(180 450 3600)" fill="#0900FF"/>
<rect x="1350" y="3600" width="150" height="150" transform="rotate(180 1350 3600)" fill="#0900FF"/>
<rect x="450" y="3300" width="150" height="150" transform="rotate(180 450 3300)" fill="#0900FF"/>
<rect x="1350" y="3300" width="150" height="150" transform="rotate(180 1350 3300)" fill="#0900FF"/>
<rect x="900" y="3450" width="450" height="150" transform="rotate(180 900 3450)" fill="#0900FF"/>
<rect x="600" y="3600" width="450" height="150" transform="rotate(-90 600 3600)" fill="#0900FF"/>
<rect x="150" y="3600" width="150" height="150" transform="rotate(180 150 3600)" fill="#0900FF"/>
<rect x="1050" y="3600" width="150" height="150" transform="rotate(180 1050 3600)" fill="#0900FF"/>
<rect x="150" y="3300" width="150" height="150" transform="rotate(180 150 3300)" fill="#0900FF"/>
<rect x="1050" y="3300" width="150" height="150" transform="rotate(180 1050 3300)" fill="#0900FF"/>
<rect x="2250" y="1800" width="150" height="150" transform="rotate(180 2250 1800)" fill="#0900FF"/>
<rect x="2250" y="1500" width="150" height="150" transform="rotate(180 2250 1500)" fill="#0900FF"/>
<rect x="2700" y="1650" width="450" height="150" transform="rotate(180 2700 1650)" fill="#0900FF"/>
<rect x="2400" y="1800" width="450" height="150" transform="rotate(-90 2400 1800)" fill="#0900FF"/>
<rect x="1800" y="1650" width="450" height="150" transform="rotate(180 1800 1650)" fill="#0900FF"/>
<rect x="1500" y="1800" width="450" height="150" transform="rotate(-90 1500 1800)" fill="#0900FF"/>
<rect x="1950" y="1800" width="150" height="150" transform="rotate(180 1950 1800)" fill="#0900FF"/>
<rect x="1950" y="1500" width="150" height="150" transform="rotate(180 1950 1500)" fill="#0900FF"/>
<rect x="1800" y="1350" width="150" height="150" transform="rotate(180 1800 1350)" fill="#0900FF"/>
<rect x="2700" y="1350" width="150" height="150" transform="rotate(180 2700 1350)" fill="#0900FF"/>
<rect x="1800" y="1050" width="150" height="150" transform="rotate(180 1800 1050)" fill="#0900FF"/>
<rect x="2700" y="1050" width="150" height="150" transform="rotate(180 2700 1050)" fill="#0900FF"/>
<rect x="2250" y="1200" width="450" height="150" transform="rotate(180 2250 1200)" fill="#0900FF"/>
<rect x="1950" y="1350" width="450" height="150" transform="rotate(-90 1950 1350)" fill="#0900FF"/>
<rect x="1500" y="1350" width="150" height="150" transform="rotate(180 1500 1350)" fill="#0900FF"/>
<rect x="2400" y="1350" width="150" height="150" transform="rotate(180 2400 1350)" fill="#0900FF"/>
<rect x="1500" y="1050" width="150" height="150" transform="rotate(180 1500 1050)" fill="#0900FF"/>
<rect x="2400" y="1050" width="150" height="150" transform="rotate(180 2400 1050)" fill="#0900FF"/>
<rect x="2250" y="900" width="150" height="150" transform="rotate(180 2250 900)" fill="#0900FF"/>
<rect x="2250" y="600" width="150" height="150" transform="rotate(180 2250 600)" fill="#0900FF"/>
<rect x="2700" y="750" width="450" height="150" transform="rotate(180 2700 750)" fill="#0900FF"/>
<rect x="2400" y="900" width="450" height="150" transform="rotate(-90 2400 900)" fill="#0900FF"/>
<rect x="1800" y="750" width="450" height="150" transform="rotate(180 1800 750)" fill="#0900FF"/>
<rect x="1500" y="900" width="450" height="150" transform="rotate(-90 1500 900)" fill="#0900FF"/>
<rect x="1950" y="900" width="150" height="150" transform="rotate(180 1950 900)" fill="#0900FF"/>
<rect x="1950" y="600" width="150" height="150" transform="rotate(180 1950 600)" fill="#0900FF"/>
<rect x="1800" y="450" width="150" height="150" transform="rotate(180 1800 450)" fill="#0900FF"/>
<rect x="2700" y="450" width="150" height="150" transform="rotate(180 2700 450)" fill="#0900FF"/>
<rect x="1800" y="150" width="150" height="150" transform="rotate(180 1800 150)" fill="#0900FF"/>
<rect x="2700" y="150" width="150" height="150" transform="rotate(180 2700 150)" fill="#0900FF"/>
<rect x="2250" y="300" width="450" height="150" transform="rotate(180 2250 300)" fill="#0900FF"/>
<rect x="1950" y="450" width="450" height="150" transform="rotate(-90 1950 450)" fill="#0900FF"/>
<rect x="1500" y="450" width="150" height="150" transform="rotate(180 1500 450)" fill="#0900FF"/>
<rect x="2400" y="450" width="150" height="150" transform="rotate(180 2400 450)" fill="#0900FF"/>
<rect x="1500" y="150" width="150" height="150" transform="rotate(180 1500 150)" fill="#0900FF"/>
<rect x="2400" y="150" width="150" height="150" transform="rotate(180 2400 150)" fill="#0900FF"/>
<rect x="900" y="1350" width="150" height="150" transform="rotate(180 900 1350)" fill="#0900FF"/>
<rect x="900" y="1050" width="150" height="150" transform="rotate(180 900 1050)" fill="#0900FF"/>
<rect x="1350" y="1200" width="450" height="150" transform="rotate(180 1350 1200)" fill="#0900FF"/>
<rect x="1050" y="1350" width="450" height="150" transform="rotate(-90 1050 1350)" fill="#0900FF"/>
<rect x="450" y="1200" width="450" height="150" transform="rotate(180 450 1200)" fill="#0900FF"/>
<rect x="150" y="1350" width="450" height="150" transform="rotate(-90 150 1350)" fill="#0900FF"/>
<rect x="600" y="1350" width="150" height="150" transform="rotate(180 600 1350)" fill="#0900FF"/>
<rect x="600" y="1050" width="150" height="150" transform="rotate(180 600 1050)" fill="#0900FF"/>
<rect x="450" y="900" width="150" height="150" transform="rotate(180 450 900)" fill="#0900FF"/>
<rect x="1350" y="900" width="150" height="150" transform="rotate(180 1350 900)" fill="#0900FF"/>
<rect x="450" y="600" width="150" height="150" transform="rotate(180 450 600)" fill="#0900FF"/>
<rect x="1350" y="600" width="150" height="150" transform="rotate(180 1350 600)" fill="#0900FF"/>
<rect x="900" y="750" width="450" height="150" transform="rotate(180 900 750)" fill="#0900FF"/>
<rect x="600" y="900" width="450" height="150" transform="rotate(-90 600 900)" fill="#0900FF"/>
<rect x="150" y="900" width="150" height="150" transform="rotate(180 150 900)" fill="#0900FF"/>
<rect x="1050" y="900" width="150" height="150" transform="rotate(180 1050 900)" fill="#0900FF"/>
<rect x="150" y="600" width="150" height="150" transform="rotate(180 150 600)" fill="#0900FF"/>
<rect x="1050" y="600" width="150" height="150" transform="rotate(180 1050 600)" fill="#0900FF"/>
<rect x="900" y="450" width="150" height="150" transform="rotate(180 900 450)" fill="#0900FF"/>
<rect x="900" y="150" width="150" height="150" transform="rotate(180 900 150)" fill="#0900FF"/>
<rect x="1350" y="300" width="450" height="150" transform="rotate(180 1350 300)" fill="#0900FF"/>
<rect x="1050" y="450" width="450" height="150" transform="rotate(-90 1050 450)" fill="#0900FF"/>
<rect x="450" y="300" width="450" height="150" transform="rotate(180 450 300)" fill="#0900FF"/>
<rect x="150" y="450" width="450" height="150" transform="rotate(-90 150 450)" fill="#0900FF"/>
<rect x="600" y="450" width="150" height="150" transform="rotate(180 600 450)" fill="#0900FF"/>
<rect x="600" y="150" width="150" height="150" transform="rotate(180 600 150)" fill="#0900FF"/>
<rect x="450" y="1800" width="150" height="150" transform="rotate(180 450 1800)" fill="#0900FF"/>
<rect x="1350" y="1800" width="150" height="150" transform="rotate(180 1350 1800)" fill="#0900FF"/>
<rect x="450" y="1500" width="150" height="150" transform="rotate(180 450 1500)" fill="#0900FF"/>
<rect x="1350" y="1500" width="150" height="150" transform="rotate(180 1350 1500)" fill="#0900FF"/>
<rect x="900" y="1650" width="450" height="150" transform="rotate(180 900 1650)" fill="#0900FF"/>
<rect x="600" y="1800" width="450" height="150" transform="rotate(-90 600 1800)" fill="#0900FF"/>
<rect x="150" y="1800" width="150" height="150" transform="rotate(180 150 1800)" fill="#0900FF"/>
<rect x="1050" y="1800" width="150" height="150" transform="rotate(180 1050 1800)" fill="#0900FF"/>
<rect x="150" y="1500" width="150" height="150" transform="rotate(180 150 1500)" fill="#0900FF"/>
<rect x="1050" y="1500" width="150" height="150" transform="rotate(180 1050 1500)" fill="#0900FF"/>
<path d="M3261.2 2598C3245.6 2598 3231.8 2595 3219.8 2589C3208 2583 3198.7 2574.8 3191.9 2564.4C3185.3 2554 3182 2542.2 3182 2529C3182 2527.8 3182.6 2527.2 3183.8 2527.2C3185 2527.2 3185.6 2527.8 3185.6 2529C3185.6 2541.8 3188.8 2553.1 3195.2 2562.9C3201.6 2572.7 3210.5 2580.4 3221.9 2586C3233.3 2591.6 3246.4 2594.4 3261.2 2594.4H3314.9C3328.9 2594.4 3341.1 2591.4 3351.5 2585.4C3361.9 2579.2 3370 2571 3375.8 2560.8C3381.8 2550.4 3384.8 2538.8 3384.8 2526C3384.8 2511.8 3381.7 2499.2 3375.5 2488.2C3369.3 2477 3361 2468.4 3350.6 2462.4C3340.6 2456.6 3329.5 2453.7 3317.3 2453.7C3316.1 2453.7 3315.5 2453.1 3315.5 2451.9C3315.5 2450.7 3316.1 2450.1 3317.3 2450.1C3323.5 2450.1 3329.4 2450.9 3335 2452.5C3340.8 2453.9 3346.2 2456 3351.2 2458.8C3358.8 2455.2 3364.7 2449.8 3368.9 2442.6C3373.1 2435.4 3375.2 2427.3 3375.2 2418.3C3375.2 2409.3 3372.7 2401 3367.7 2393.4C3362.7 2385.8 3355.9 2379.7 3347.3 2375.1C3338.7 2370.5 3328.9 2368.2 3317.9 2368.2H3254.3C3241.7 2368.2 3230.5 2371.3 3220.7 2377.5C3211.1 2383.5 3203.5 2391.7 3197.9 2402.1C3192.5 2412.3 3189.8 2423.7 3189.8 2436.3C3189.8 2449.9 3192.8 2461.8 3198.8 2472C3205 2482.2 3213.2 2490.1 3223.4 2495.7C3233.8 2501.3 3245.3 2504.1 3257.9 2504.1C3259.1 2504.1 3259.7 2504.7 3259.7 2505.9C3259.7 2507.1 3259.1 2507.7 3257.9 2507.7C3244.5 2507.7 3232.4 2504.7 3221.6 2498.7C3210.8 2492.7 3202.2 2484.3 3195.8 2473.5C3189.4 2462.7 3186.2 2450.3 3186.2 2436.3C3186.2 2422.9 3189.1 2410.8 3194.9 2400C3200.9 2389.2 3209 2380.6 3219.2 2374.2C3229.6 2367.8 3241.3 2364.6 3254.3 2364.6H3317.9C3329.7 2364.6 3340.2 2367.1 3349.4 2372.1C3358.6 2377.1 3365.8 2383.7 3371 2391.9C3376.2 2399.9 3378.8 2408.7 3378.8 2418.3C3378.8 2427.3 3376.6 2435.6 3372.2 2443.2C3368 2450.8 3362.1 2456.7 3354.5 2460.9C3364.7 2467.1 3372.9 2475.9 3379.1 2487.3C3385.3 2498.5 3388.4 2511.4 3388.4 2526C3388.4 2539.2 3385.3 2551.3 3379.1 2562.3C3373.1 2573.1 3364.6 2581.8 3353.6 2588.4C3342.6 2594.8 3329.7 2598 3314.9 2598H3261.2ZM3448.87 2598C3441.47 2598 3434.67 2596.3 3428.47 2592.9C3422.47 2589.3 3417.67 2584.5 3414.07 2578.5C3410.47 2572.5 3408.67 2565.7 3408.67 2558.1V2551.5C3408.67 2544.3 3410.37 2537.7 3413.77 2531.7C3417.37 2525.7 3422.07 2520.9 3427.87 2517.3C3433.67 2513.5 3440.17 2511.6 3447.37 2511.6V2448.9C3439.97 2448.7 3433.37 2446.8 3427.57 2443.2C3421.77 2439.6 3417.17 2434.9 3413.77 2429.1C3410.37 2423.3 3408.67 2417 3408.67 2410.2V2403.6C3408.67 2396.2 3410.37 2389.6 3413.77 2383.8C3417.37 2378 3422.07 2373.4 3427.87 2370C3433.87 2366.4 3440.47 2364.6 3447.67 2364.6H3523.27C3530.67 2364.6 3537.27 2366.4 3543.07 2370C3549.07 2373.4 3553.77 2378 3557.17 2383.8C3560.77 2389.6 3562.57 2396.2 3562.57 2403.6V2410.2C3562.57 2417 3560.87 2423.3 3557.47 2429.1C3554.27 2434.9 3549.67 2439.6 3543.67 2443.2C3537.87 2446.8 3531.07 2448.7 3523.27 2448.9V2499.6C3523.27 2500.8 3522.67 2501.4 3521.47 2501.4C3520.27 2501.4 3519.67 2500.8 3519.67 2499.6V2447.1C3519.67 2445.9 3520.17 2445.3 3521.17 2445.3C3532.17 2445.3 3541.17 2441.9 3548.17 2435.1C3555.37 2428.3 3558.97 2420 3558.97 2410.2V2403.6C3558.97 2397 3557.37 2391 3554.17 2385.6C3550.97 2380.2 3546.67 2376 3541.27 2373C3535.87 2369.8 3529.87 2368.2 3523.27 2368.2H3447.67C3437.87 2368.2 3429.47 2371.6 3422.47 2378.4C3415.67 2385.2 3412.27 2393.6 3412.27 2403.6V2410.2C3412.27 2420 3415.77 2428.3 3422.77 2435.1C3429.77 2441.9 3438.57 2445.3 3449.17 2445.3C3450.37 2445.3 3450.97 2445.9 3450.97 2447.1V2513.4C3450.97 2514.4 3450.37 2514.9 3449.17 2514.9C3442.37 2514.9 3436.17 2516.6 3430.57 2520C3424.97 2523.2 3420.47 2527.6 3417.07 2533.2C3413.87 2538.6 3412.27 2544.7 3412.27 2551.5V2558.1C3412.27 2568.5 3415.77 2577.2 3422.77 2584.2C3429.97 2591 3438.67 2594.4 3448.87 2594.4H3522.97C3533.37 2594.4 3542.07 2591 3549.07 2584.2C3556.27 2577.2 3559.87 2568.5 3559.87 2558.1V2554.5C3559.87 2542.7 3556.17 2533.1 3548.77 2525.7C3541.57 2518.3 3532.17 2514.5 3520.57 2514.3C3517.97 2514.3 3515.17 2514.8 3512.17 2515.8C3509.37 2516.8 3506.67 2518.5 3504.07 2520.9C3502.87 2521.7 3501.87 2521.7 3501.07 2520.9C3500.27 2520.1 3500.37 2519.2 3501.37 2518.2C3503.77 2515.8 3506.77 2514 3510.37 2512.8C3514.17 2511.4 3517.57 2510.7 3520.57 2510.7C3528.97 2510.7 3536.37 2512.6 3542.77 2516.4C3549.17 2520.2 3554.17 2525.4 3557.77 2532C3561.57 2538.6 3563.47 2546.1 3563.47 2554.5V2558.1C3563.47 2565.7 3561.67 2572.5 3558.07 2578.5C3554.47 2584.5 3549.57 2589.3 3543.37 2592.9C3537.37 2596.3 3530.57 2598 3522.97 2598H3448.87ZM3662.85 2574.6C3661.45 2583.2 3657.25 2590.2 3650.25 2595.6C3643.45 2600.8 3635.75 2602.7 3627.15 2601.3L3609.15 2598.6C3599.15 2597 3591.35 2592.6 3585.75 2585.4C3580.35 2578.2 3578.35 2569.7 3579.75 2559.9L3603.15 2403.9C3605.35 2390.1 3610.75 2379.6 3619.35 2372.4C3628.15 2365 3638.75 2361.3 3651.15 2361.3C3659.55 2361.3 3668.05 2363.5 3676.65 2367.9C3685.45 2372.3 3692.45 2379.9 3697.65 2390.7L3711.75 2419.2L3725.25 2388.9C3729.65 2379.1 3736.05 2372.1 3744.45 2367.9C3753.05 2363.5 3761.65 2361.3 3770.25 2361.3C3781.65 2361.3 3792.05 2365 3801.45 2372.4C3810.85 2379.6 3816.55 2390.3 3818.55 2404.5L3841.95 2559.9C3843.55 2569.7 3841.75 2578.2 3836.55 2585.4C3831.35 2592.6 3824.35 2596.9 3815.55 2598.3L3797.55 2601C3787.75 2602.4 3779.35 2600.6 3772.35 2595.6C3765.35 2590.6 3761.05 2583.7 3759.45 2574.9L3750.45 2520.3C3750.45 2519.3 3750.75 2518.7 3751.35 2518.5C3751.75 2518.1 3752.25 2518.1 3752.85 2518.5C3753.45 2518.7 3753.85 2519.1 3754.05 2519.7L3763.05 2574.3C3764.25 2581.9 3767.85 2588 3773.85 2592.6C3780.05 2597.2 3787.75 2598.8 3796.95 2597.4L3815.25 2594.7C3822.85 2593.7 3828.95 2590 3833.55 2583.6C3838.15 2577 3839.75 2569.2 3838.35 2560.2L3814.95 2405.1C3813.55 2395.7 3810.55 2388.1 3805.95 2382.3C3801.35 2376.3 3795.85 2371.9 3789.45 2369.1C3783.25 2366.3 3776.85 2364.9 3770.25 2364.9C3762.25 2364.9 3754.25 2366.9 3746.25 2370.9C3738.45 2374.7 3732.45 2381.3 3728.25 2390.7L3713.55 2423.7C3713.35 2424.3 3712.75 2424.6 3711.75 2424.6C3710.95 2424.6 3710.35 2424.2 3709.95 2423.4L3694.35 2392.2C3689.35 2382 3682.85 2374.9 3674.85 2370.9C3667.05 2366.9 3659.15 2364.9 3651.15 2364.9C3639.75 2364.9 3629.95 2368.2 3621.75 2374.8C3613.75 2381.2 3608.75 2391.1 3606.75 2404.5L3583.35 2560.2C3581.95 2569.2 3583.65 2576.9 3588.45 2583.3C3593.45 2589.7 3600.45 2593.6 3609.45 2595L3627.75 2597.7C3635.35 2598.7 3642.15 2596.9 3648.15 2592.3C3654.35 2587.7 3658.05 2581.7 3659.25 2574.3L3670.05 2506.2C3670.45 2504.4 3671.25 2503.3 3672.45 2502.9C3673.85 2502.5 3675.05 2503 3676.05 2504.4C3681.05 2510.6 3686.55 2515.8 3692.55 2520C3698.75 2524.2 3705.45 2526.3 3712.65 2526.3C3719.85 2526.3 3726.35 2524.1 3732.15 2519.7C3737.95 2515.1 3742.85 2510.1 3746.85 2504.7L3757.05 2491.2C3757.85 2490.2 3758.65 2490.1 3759.45 2490.9C3760.25 2491.7 3760.35 2492.6 3759.75 2493.6L3749.85 2506.5C3745.25 2512.5 3739.95 2517.9 3733.95 2522.7C3727.95 2527.5 3720.85 2529.9 3712.65 2529.9C3704.65 2529.9 3697.45 2527.8 3691.05 2523.6C3684.85 2519.4 3679.05 2513.9 3673.65 2507.1L3662.85 2574.6ZM3888.98 2598C3881.38 2598 3874.98 2595.3 3869.78 2589.9C3864.58 2584.3 3861.98 2577.4 3861.98 2569.2V2393.7C3861.98 2385.5 3864.58 2378.6 3869.78 2373C3875.18 2367.4 3881.58 2364.6 3888.98 2364.6H3914.18C3920.98 2364.6 3926.88 2366.9 3931.88 2371.5C3937.08 2375.9 3940.18 2381.6 3941.18 2388.6C3944.58 2380.2 3950.78 2373.6 3959.78 2368.8C3968.98 2363.8 3979.48 2361.3 3991.28 2361.3C4007.28 2361.3 4020.58 2364.8 4031.18 2371.8C4041.98 2378.6 4050.08 2387.5 4055.48 2398.5C4061.08 2409.5 4063.88 2421.2 4063.88 2433.6C4063.88 2446 4061.38 2457.4 4056.38 2467.8C4051.38 2478.2 4043.98 2486.5 4034.18 2492.7C4024.38 2498.7 4012.18 2501.7 3997.58 2501.7H3946.58C3945.38 2501.7 3944.78 2501.1 3944.78 2499.9C3944.78 2498.7 3945.38 2498.1 3946.58 2498.1H3997.58C4011.38 2498.1 4022.88 2495.2 4032.08 2489.4C4041.48 2483.6 4048.48 2475.9 4053.08 2466.3C4057.88 2456.5 4060.28 2445.6 4060.28 2433.6C4060.28 2421.8 4057.68 2410.7 4052.48 2400.3C4047.28 2389.7 4039.58 2381.2 4029.38 2374.8C4019.18 2368.2 4006.48 2364.9 3991.28 2364.9C3979.68 2364.9 3969.58 2367.5 3960.98 2372.7C3952.58 2377.7 3946.78 2384 3943.58 2391.6C3942.18 2394.6 3941.48 2398.1 3941.48 2402.1C3941.48 2403.5 3940.88 2404.2 3939.68 2404.2C3938.48 2404.2 3937.88 2403.5 3937.88 2402.1V2393.7C3937.88 2386.3 3935.58 2380.2 3930.98 2375.4C3926.58 2370.6 3920.98 2368.2 3914.18 2368.2H3888.98C3882.38 2368.2 3876.78 2370.7 3872.18 2375.7C3867.78 2380.7 3865.58 2386.7 3865.58 2393.7V2569.2C3865.58 2576.4 3867.78 2582.4 3872.18 2587.2C3876.78 2592 3882.38 2594.4 3888.98 2594.4H3914.78C3921.58 2594.4 3927.28 2592 3931.88 2587.2C3936.48 2582.4 3938.78 2576.4 3938.78 2569.2C3938.78 2568 3939.38 2567.4 3940.58 2567.4C3941.78 2567.4 3942.38 2568 3942.38 2569.2C3942.38 2577.2 3939.68 2584 3934.28 2589.6C3929.08 2595.2 3922.58 2598 3914.78 2598H3888.98ZM4108.71 2598C4101.11 2598 4094.71 2595.2 4089.51 2589.6C4084.31 2584 4081.71 2577.2 4081.71 2569.2V2393.7C4081.71 2385.5 4084.21 2378.6 4089.21 2373C4094.41 2367.4 4100.91 2364.6 4108.71 2364.6H4133.91C4141.71 2364.6 4148.21 2367.5 4153.41 2373.3C4158.81 2378.9 4161.51 2385.7 4161.51 2393.7V2426.1C4161.51 2427.3 4160.91 2427.9 4159.71 2427.9C4158.51 2427.9 4157.91 2427.3 4157.91 2426.1V2393.7C4157.91 2386.7 4155.61 2380.7 4151.01 2375.7C4146.41 2370.7 4140.71 2368.2 4133.91 2368.2H4108.71C4101.91 2368.2 4096.31 2370.7 4091.91 2375.7C4087.51 2380.7 4085.31 2386.7 4085.31 2393.7V2569.2C4085.31 2576.4 4087.51 2582.4 4091.91 2587.2C4096.51 2592 4102.11 2594.4 4108.71 2594.4H4220.31C4230.31 2594.4 4238.81 2591.4 4245.81 2585.4C4252.81 2579.2 4256.31 2570.4 4256.31 2559V2553.3C4256.31 2541.9 4252.71 2532.6 4245.51 2525.4C4238.31 2518.2 4228.91 2514.6 4217.31 2514.6C4206.31 2514.6 4197.21 2517.6 4190.01 2523.6C4183.01 2529.4 4177.11 2537.1 4172.31 2546.7C4171.91 2547.7 4171.21 2548 4170.21 2547.6C4168.81 2547.2 4168.41 2546.4 4169.01 2545.2C4174.21 2535.2 4180.61 2527 4188.21 2520.6C4196.01 2514.2 4205.71 2511 4217.31 2511C4229.91 2511 4240.11 2515 4247.91 2523C4255.91 2530.8 4259.91 2540.9 4259.91 2553.3V2559C4259.91 2571.6 4256.11 2581.3 4248.51 2588.1C4240.91 2594.7 4231.51 2598 4220.31 2598H4108.71ZM4307.93 2598C4300.53 2598 4294.13 2595.2 4288.73 2589.6C4283.53 2584 4280.93 2577.1 4280.93 2568.9V2393.7C4280.93 2385.5 4283.53 2378.6 4288.73 2373C4294.13 2367.4 4300.53 2364.6 4307.93 2364.6H4335.23C4341.23 2364.6 4346.63 2366.6 4351.43 2370.6C4356.23 2374.4 4359.43 2379.2 4361.03 2385C4363.63 2378 4367.83 2372.9 4373.63 2369.7C4379.63 2366.3 4386.03 2364.6 4392.83 2364.6H4434.23C4442.83 2364.6 4450.03 2367.6 4455.83 2373.6C4461.63 2379.6 4464.53 2386.8 4464.53 2395.2V2414.4C4464.53 2422.8 4461.63 2430 4455.83 2436C4450.23 2441.8 4443.03 2444.7 4434.23 2444.7H4370.63C4369.43 2444.7 4368.83 2444.1 4368.83 2442.9C4368.83 2441.7 4369.43 2441.1 4370.63 2441.1H4434.23C4441.83 2441.1 4448.13 2438.6 4453.13 2433.6C4458.33 2428.4 4460.93 2422 4460.93 2414.4V2395.2C4460.93 2387.6 4458.33 2381.2 4453.13 2376C4448.13 2370.8 4441.83 2368.2 4434.23 2368.2H4392.83C4384.63 2368.2 4377.53 2370.7 4371.53 2375.7C4365.53 2380.5 4362.53 2388.2 4362.53 2398.8C4362.53 2400 4361.93 2400.6 4360.73 2400.6C4359.53 2400.6 4358.93 2400 4358.93 2398.8V2394.6C4358.93 2387.6 4356.63 2381.5 4352.03 2376.3C4347.63 2370.9 4342.03 2368.2 4335.23 2368.2H4307.93C4301.33 2368.2 4295.73 2370.7 4291.13 2375.7C4286.73 2380.7 4284.53 2386.7 4284.53 2393.7V2568.9C4284.53 2576.1 4286.73 2582.2 4291.13 2587.2C4295.73 2592 4301.33 2594.4 4307.93 2594.4H4428.53C4438.33 2594.4 4446.53 2591.1 4453.13 2584.5C4459.93 2577.9 4463.33 2569.7 4463.33 2559.9C4463.33 2558.7 4463.93 2558.1 4465.13 2558.1C4466.33 2558.1 4466.93 2558.7 4466.93 2559.9C4466.93 2566.9 4465.23 2573.3 4461.83 2579.1C4458.43 2584.9 4453.83 2589.5 4448.03 2592.9C4442.23 2596.3 4435.73 2598 4428.53 2598H4307.93ZM4368.83 2514C4368.83 2512.8 4369.43 2512.2 4370.63 2512.2H4406.03C4414.23 2512.2 4421.03 2509.9 4426.43 2505.3C4432.03 2500.5 4434.93 2494.1 4435.13 2486.1C4435.13 2484.9 4435.73 2484.3 4436.93 2484.3C4438.13 2484.3 4438.73 2484.9 4438.73 2486.1C4438.53 2495.1 4435.33 2502.3 4429.13 2507.7C4422.93 2513.1 4415.23 2515.8 4406.03 2515.8H4370.63C4369.43 2515.8 4368.83 2515.2 4368.83 2514Z" fill="#0900FF"/>
</svg>
